<svg xmlns="http://www.w3.org/2000/svg" xmlns:xlink="http://www.w3.org/1999/xlink" version="1.1" width="256" height="256" viewBox="0 0 256 256" xml:space="preserve">

<defs>
</defs>
<g style="stroke: none; stroke-width: 0; stroke-dasharray: none; stroke-linecap: butt; stroke-linejoin: miter; stroke-miterlimit: 10; fill: none; fill-rule: nonzero; opacity: 1;" transform="translate(1.4065934065934016 1.4065934065934016) scale(2.81 2.81)" >
	<path d="M 52.691 87.268 V 48.267 c 0 -0.725 -0.25 -1.42 -0.695 -1.932 L 40.778 33.419 c -0.445 -0.512 -0.695 -1.207 -0.695 -1.932 V 2.733 C 40.083 1.223 39.02 0 37.709 0 L 31.98 0 c -1.311 0 -2.373 1.223 -2.373 2.732 v 28.754 c 0 0.725 -0.25 1.42 -0.695 1.932 L 17.694 46.334 c -0.445 0.512 -0.695 1.207 -0.695 1.932 v 39.001 c 0 1.509 1.063 2.732 2.373 2.732 h 30.946 C 51.628 90 52.691 88.777 52.691 87.268 z" style="stroke: none; stroke-width: 1; stroke-dasharray: none; stroke-linecap: butt; stroke-linejoin: miter; stroke-miterlimit: 10; fill: rgb(225,57,25); fill-rule: nonzero; opacity: 1;" transform=" matrix(1 0 0 1 0 0) " stroke-linecap="round" />
	<path d="M 24.971 87.268 V 48.267 c 0 -0.725 0.18 -1.42 0.499 -1.932 l 8.056 -12.915 c 0.32 -0.512 0.499 -1.207 0.499 -1.932 V 2.733 C 34.026 1.223 34.789 0 35.731 0 h 1.979 c 0 0 0 0 -0.001 0 H 31.98 c -1.311 0 -2.373 1.223 -2.373 2.733 v 28.754 c 0 0.725 -0.25 1.42 -0.695 1.932 L 17.694 46.334 c -0.445 0.512 -0.695 1.207 -0.695 1.932 v 39.001 c 0 1.509 1.063 2.732 2.373 2.732 h 7.304 C 25.735 90 24.971 88.777 24.971 87.268 z" style="stroke: none; stroke-width: 1; stroke-dasharray: none; stroke-linecap: butt; stroke-linejoin: miter; stroke-miterlimit: 10; fill: rgb(209,51,21); fill-rule: nonzero; opacity: 1;" transform=" matrix(1 0 0 1 0 0) " stroke-linecap="round" />
	<rect x="29.98" y="57.72" rx="0" ry="0" width="22.71" height="18.27" style="stroke: none; stroke-width: 1; stroke-dasharray: none; stroke-linecap: butt; stroke-linejoin: miter; stroke-miterlimit: 10; fill: rgb(229,168,61); fill-rule: nonzero; opacity: 1;" transform=" matrix(1 0 0 1 0 0) "/>
	<path d="M 40.083 16.573 V 2.733 C 40.083 1.223 39.02 0 37.709 0 H 31.98 c -1.311 0 -2.373 1.223 -2.373 2.733 v 13.84 H 40.083 z" style="stroke: none; stroke-width: 1; stroke-dasharray: none; stroke-linecap: butt; stroke-linejoin: miter; stroke-miterlimit: 10; fill: rgb(229,168,61); fill-rule: nonzero; opacity: 1;" transform=" matrix(1 0 0 1 0 0) " stroke-linecap="round" />
	<path d="M 36.406 0 H 31.98 c -1.311 0 -2.373 1.223 -2.373 2.733 v 13.84 h 4.425 V 2.733 C 34.032 1.223 35.095 0 36.406 0 z" style="stroke: none; stroke-width: 1; stroke-dasharray: none; stroke-linecap: butt; stroke-linejoin: miter; stroke-miterlimit: 10; fill: rgb(214,155,51); fill-rule: nonzero; opacity: 1;" transform=" matrix(1 0 0 1 0 0) " stroke-linecap="round" />
	<circle cx="35.699" cy="3.6990000000000003" r="0.559" style="stroke: none; stroke-width: 1; stroke-dasharray: none; stroke-linecap: butt; stroke-linejoin: miter; stroke-miterlimit: 10; fill: rgb(214,155,51); fill-rule: nonzero; opacity: 1;" transform="  matrix(1 0 0 1 0 0) "/>
	<circle cx="35.699" cy="6.359" r="0.559" style="stroke: none; stroke-width: 1; stroke-dasharray: none; stroke-linecap: butt; stroke-linejoin: miter; stroke-miterlimit: 10; fill: rgb(214,155,51); fill-rule: nonzero; opacity: 1;" transform="  matrix(1 0 0 1 0 0) "/>
	<circle cx="35.699" cy="9.019" r="0.559" style="stroke: none; stroke-width: 1; stroke-dasharray: none; stroke-linecap: butt; stroke-linejoin: miter; stroke-miterlimit: 10; fill: rgb(214,155,51); fill-rule: nonzero; opacity: 1;" transform="  matrix(1 0 0 1 0 0) "/>
	<circle cx="35.699" cy="11.668999999999999" r="0.559" style="stroke: none; stroke-width: 1; stroke-dasharray: none; stroke-linecap: butt; stroke-linejoin: miter; stroke-miterlimit: 10; fill: rgb(214,155,51); fill-rule: nonzero; opacity: 1;" transform="  matrix(1 0 0 1 0 0) "/>
	<circle cx="35.699" cy="14.508999999999999" r="0.559" style="stroke: none; stroke-width: 1; stroke-dasharray: none; stroke-linecap: butt; stroke-linejoin: miter; stroke-miterlimit: 10; fill: rgb(214,155,51); fill-rule: nonzero; opacity: 1;" transform="  matrix(1 0 0 1 0 0) "/>
	<circle cx="38.358999999999995" cy="3.6990000000000003" r="0.559" style="stroke: none; stroke-width: 1; stroke-dasharray: none; stroke-linecap: butt; stroke-linejoin: miter; stroke-miterlimit: 10; fill: rgb(214,155,51); fill-rule: nonzero; opacity: 1;" transform="  matrix(1 0 0 1 0 0) "/>
	<circle cx="38.358999999999995" cy="6.359" r="0.559" style="stroke: none; stroke-width: 1; stroke-dasharray: none; stroke-linecap: butt; stroke-linejoin: miter; stroke-miterlimit: 10; fill: rgb(214,155,51); fill-rule: nonzero; opacity: 1;" transform="  matrix(1 0 0 1 0 0) "/>
	<circle cx="38.358999999999995" cy="9.019" r="0.559" style="stroke: none; stroke-width: 1; stroke-dasharray: none; stroke-linecap: butt; stroke-linejoin: miter; stroke-miterlimit: 10; fill: rgb(214,155,51); fill-rule: nonzero; opacity: 1;" transform="  matrix(1 0 0 1 0 0) "/>
	<circle cx="38.358999999999995" cy="11.668999999999999" r="0.559" style="stroke: none; stroke-width: 1; stroke-dasharray: none; stroke-linecap: butt; stroke-linejoin: miter; stroke-miterlimit: 10; fill: rgb(214,155,51); fill-rule: nonzero; opacity: 1;" transform="  matrix(1 0 0 1 0 0) "/>
	<circle cx="38.358999999999995" cy="14.508999999999999" r="0.559" style="stroke: none; stroke-width: 1; stroke-dasharray: none; stroke-linecap: butt; stroke-linejoin: miter; stroke-miterlimit: 10; fill: rgb(214,155,51); fill-rule: nonzero; opacity: 1;" transform="  matrix(1 0 0 1 0 0) "/>
	<rect x="60.66" y="64.44" rx="0" ry="0" width="2" height="23.44" style="stroke: none; stroke-width: 1; stroke-dasharray: none; stroke-linecap: butt; stroke-linejoin: miter; stroke-miterlimit: 10; fill: rgb(226,225,224); fill-rule: nonzero; opacity: 1;" transform=" matrix(1 0 0 1 0 0) "/>
	<path d="M 51.024 40.739 c -0.449 2.005 -0.706 4.163 -0.706 6.424 c 0 10.294 5.078 18.639 11.342 18.639 s 11.342 -8.345 11.342 -18.639 c 0 -2.261 -0.257 -4.419 -0.706 -6.424 H 51.024 z" style="stroke: none; stroke-width: 1; stroke-dasharray: none; stroke-linecap: butt; stroke-linejoin: miter; stroke-miterlimit: 10; fill: rgb(242,242,242); fill-rule: nonzero; opacity: 1;" transform=" matrix(1 0 0 1 0 0) " stroke-linecap="round" />
	<path d="M 56.258 47.163 c 0 -2.261 0.123 -4.419 0.336 -6.424 h -5.571 c -0.449 2.005 -0.706 4.163 -0.706 6.424 c 0 10.294 5.078 18.639 11.342 18.639 C 58.677 65.802 56.258 57.457 56.258 47.163 z" style="stroke: none; stroke-width: 1; stroke-dasharray: none; stroke-linecap: butt; stroke-linejoin: miter; stroke-miterlimit: 10; fill: rgb(226,225,224); fill-rule: nonzero; opacity: 1;" transform=" matrix(1 0 0 1 0 0) " stroke-linecap="round" />
	<path d="M 50.366 49.602 c 0.486 9.558 5.352 17.07 11.294 17.07 s 10.808 -7.512 11.294 -17.07 H 50.366 z" style="stroke: none; stroke-width: 1; stroke-dasharray: none; stroke-linecap: butt; stroke-linejoin: miter; stroke-miterlimit: 10; fill: rgb(225,57,25); fill-rule: nonzero; opacity: 1;" transform=" matrix(1 0 0 1 0 0) " stroke-linecap="round" />
	<path d="M 56.281 49.602 h -5.915 c 0.486 9.558 5.352 17.07 11.294 17.07 C 58.83 66.672 56.513 59.16 56.281 49.602 z" style="stroke: none; stroke-width: 1; stroke-dasharray: none; stroke-linecap: butt; stroke-linejoin: miter; stroke-miterlimit: 10; fill: rgb(209,51,21); fill-rule: nonzero; opacity: 1;" transform=" matrix(1 0 0 1 0 0) " stroke-linecap="round" />
	<polygon points="61.66,87.49 65.13,88.75 68.6,90 61.66,90 54.72,90 58.19,88.75 " style="stroke: none; stroke-width: 1; stroke-dasharray: none; stroke-linecap: butt; stroke-linejoin: miter; stroke-miterlimit: 10; fill: rgb(226,225,224); fill-rule: nonzero; opacity: 1;" transform="  matrix(1 0 0 1 0 0) "/>
</g>
</svg>