<svg xmlns="http://www.w3.org/2000/svg" xmlns:xlink="http://www.w3.org/1999/xlink" version="1.1" width="256" height="256" viewBox="0 0 256 256" xml:space="preserve">

<defs>
</defs>
<g style="stroke: none; stroke-width: 0; stroke-dasharray: none; stroke-linecap: butt; stroke-linejoin: miter; stroke-miterlimit: 10; fill: none; fill-rule: nonzero; opacity: 1;" transform="translate(1.4065934065934016 1.4065934065934016) scale(2.81 2.81)" >
	<polygon points="59.46,68.5 68.71,8.32 77.11,68.5 " style="stroke: none; stroke-width: 1; stroke-dasharray: none; stroke-linecap: butt; stroke-linejoin: miter; stroke-miterlimit: 10; fill: rgb(217,148,57); fill-rule: nonzero; opacity: 1;" transform="  matrix(1 0 0 1 0 0) "/>
	<path d="M 26.452 68.505 l 5.697 -60.187 c 11.265 4.113 23.412 4.08 36.421 0 l -5.554 60.187 H 26.452 z" style="stroke: none; stroke-width: 1; stroke-dasharray: none; stroke-linecap: butt; stroke-linejoin: miter; stroke-miterlimit: 10; fill: rgb(255,180,80); fill-rule: nonzero; opacity: 1;" transform=" matrix(1 0 0 1 0 0) " stroke-linecap="round" />
	<polygon points="26.45,20.29 63.01,20.29 68.57,8.32 32.15,8.32 " style="stroke: none; stroke-width: 1; stroke-dasharray: none; stroke-linecap: butt; stroke-linejoin: miter; stroke-miterlimit: 10; fill: rgb(217,148,57); fill-rule: nonzero; opacity: 1;" transform="  matrix(1 0 0 1 0 0) "/>
	<polygon points="38.44,38.34 13.99,38.34 16.77,68.5 35.65,68.5 " style="stroke: none; stroke-width: 1; stroke-dasharray: none; stroke-linecap: butt; stroke-linejoin: miter; stroke-miterlimit: 10; fill: rgb(255,109,111); fill-rule: nonzero; opacity: 1;" transform="  matrix(1 0 0 1 0 0) "/>
	<polygon points="42.62,39.52 9.81,39.52 13.55,29.31 38.88,29.31 " style="stroke: none; stroke-width: 1; stroke-dasharray: none; stroke-linecap: butt; stroke-linejoin: miter; stroke-miterlimit: 10; fill: rgb(234,84,84); fill-rule: nonzero; opacity: 1;" transform="  matrix(1 0 0 1 0 0) "/>
	<rect x="0" y="67.36" rx="0" ry="0" width="90" height="14.32" style="stroke: none; stroke-width: 1; stroke-dasharray: none; stroke-linecap: butt; stroke-linejoin: miter; stroke-miterlimit: 10; fill: rgb(204,137,100); fill-rule: nonzero; opacity: 1;" transform=" matrix(1 0 0 1 0 0) "/>
	<path d="M 89 82.427 H 1 c -0.552 0 -1 -0.447 -1 -1 V 67.423 c 0 -0.553 0.448 -1 1 -1 h 88 c 0.553 0 1 0.447 1 1 v 14.004 C 90 81.979 89.553 82.427 89 82.427 z M 2 80.427 h 86 V 68.423 H 2 V 80.427 z" style="stroke: none; stroke-width: 1; stroke-dasharray: none; stroke-linecap: butt; stroke-linejoin: miter; stroke-miterlimit: 10; fill: rgb(0,0,0); fill-rule: nonzero; opacity: 1;" transform=" matrix(1 0 0 1 0 0) " stroke-linecap="round" />
	<path d="M 76.396 68.423 h -13.78 c -0.281 0 -0.55 -0.119 -0.739 -0.327 s -0.283 -0.486 -0.256 -0.767 l 5.57 -58.85 c 0.048 -0.505 0.466 -0.895 0.973 -0.905 c 0.008 0 0.016 0 0.022 0 c 0.498 0 0.921 0.367 0.99 0.862 l 8.21 58.85 c 0.04 0.286 -0.046 0.576 -0.236 0.794 C 76.961 68.298 76.686 68.423 76.396 68.423 z M 63.716 66.423 h 11.531 l -6.87 -49.248 L 63.716 66.423 z" style="stroke: none; stroke-width: 1; stroke-dasharray: none; stroke-linecap: butt; stroke-linejoin: miter; stroke-miterlimit: 10; fill: rgb(0,0,0); fill-rule: nonzero; opacity: 1;" transform=" matrix(1 0 0 1 0 0) " stroke-linecap="round" />
	<path d="M 30.493 30.097 c -0.031 0 -0.063 -0.001 -0.095 -0.004 c -0.55 -0.052 -0.953 -0.54 -0.901 -1.09 l 0.834 -8.815 c 0.052 -0.549 0.53 -0.949 1.09 -0.901 c 0.55 0.052 0.953 0.54 0.901 1.09 l -0.834 8.815 C 31.438 29.708 31.002 30.097 30.493 30.097 z" style="stroke: none; stroke-width: 1; stroke-dasharray: none; stroke-linecap: butt; stroke-linejoin: miter; stroke-miterlimit: 10; fill: rgb(0,0,0); fill-rule: nonzero; opacity: 1;" transform=" matrix(1 0 0 1 0 0) " stroke-linecap="round" />
	<path d="M 62.616 68.423 H 35.861 c -0.552 0 -1 -0.447 -1 -1 s 0.448 -1 1 -1 h 26.755 c 0.553 0 1 0.447 1 1 S 63.169 68.423 62.616 68.423 z" style="stroke: none; stroke-width: 1; stroke-dasharray: none; stroke-linecap: butt; stroke-linejoin: miter; stroke-miterlimit: 10; fill: rgb(0,0,0); fill-rule: nonzero; opacity: 1;" transform=" matrix(1 0 0 1 0 0) " stroke-linecap="round" />
	<path d="M 62.609 21.281 H 26.857 c -0.343 0 -0.663 -0.176 -0.846 -0.466 c -0.183 -0.29 -0.205 -0.654 -0.057 -0.964 l 5.577 -11.708 c 0.166 -0.348 0.517 -0.57 0.903 -0.57 h 35.612 c 0.342 0 0.659 0.174 0.843 0.462 c 0.184 0.288 0.208 0.649 0.064 0.959 l -5.438 11.708 C 63.353 21.056 62.999 21.281 62.609 21.281 z M 28.441 19.281 h 33.53 l 4.508 -9.708 H 33.066 L 28.441 19.281 z" style="stroke: none; stroke-width: 1; stroke-dasharray: none; stroke-linecap: butt; stroke-linejoin: miter; stroke-miterlimit: 10; fill: rgb(0,0,0); fill-rule: nonzero; opacity: 1;" transform=" matrix(1 0 0 1 0 0) " stroke-linecap="round" />
	<path d="M 35.861 68.423 H 17.4 c -0.515 0 -0.946 -0.392 -0.996 -0.904 L 13.68 39.182 c -0.027 -0.281 0.066 -0.56 0.255 -0.768 s 0.458 -0.328 0.74 -0.328 h 23.91 c 0.282 0 0.551 0.119 0.74 0.328 s 0.282 0.487 0.255 0.768 l -2.725 28.336 C 36.807 68.031 36.376 68.423 35.861 68.423 z M 18.309 66.423 h 16.644 l 2.533 -26.336 H 15.776 L 18.309 66.423 z" style="stroke: none; stroke-width: 1; stroke-dasharray: none; stroke-linecap: butt; stroke-linejoin: miter; stroke-miterlimit: 10; fill: rgb(0,0,0); fill-rule: nonzero; opacity: 1;" transform=" matrix(1 0 0 1 0 0) " stroke-linecap="round" />
	<path d="M 42.67 40.086 h -32.08 c -0.327 0 -0.633 -0.16 -0.82 -0.427 s -0.231 -0.61 -0.119 -0.917 l 3.656 -9.99 c 0.144 -0.394 0.519 -0.656 0.939 -0.656 h 24.768 c 0.42 0 0.795 0.262 0.939 0.656 l 3.656 9.99 c 0.112 0.307 0.068 0.649 -0.119 0.917 S 42.997 40.086 42.67 40.086 z M 12.021 38.086 H 41.24 l -2.924 -7.99 h -23.37 L 12.021 38.086 z" style="stroke: none; stroke-width: 1; stroke-dasharray: none; stroke-linecap: butt; stroke-linejoin: miter; stroke-miterlimit: 10; fill: rgb(0,0,0); fill-rule: nonzero; opacity: 1;" transform=" matrix(1 0 0 1 0 0) " stroke-linecap="round" />
</g>
</svg>