<svg xmlns="http://www.w3.org/2000/svg" height="800" width="1200" id="svg893" version="1.1" viewBox="-30.001785 -8.23745 260.01547 49.4247"><style id="style860"/><path id="path863" d="M158.2254 18.6828a1.386 1.386 0 10-1.039-1.056 1.384 1.384 0 001.04 1.056zm-72.606 10.024a2.91 2.91 0 002.023-.754 2.754 2.754 0 00.264.64h2.01v-9.054a12.598 12.598 0 00-3.132-.486c-2.763 0-5.638 2.007-4.838 5.984.43 2.114 1.998 3.67 3.673 3.67zm.94-7.684c.225 0 .497.024.675.04l.008 5.193a1.571 1.571 0 01-1.087.418c-.518 0-1.32-.46-1.557-1.875-.39-2.327.82-3.776 1.96-3.776zm-36.958-1.05l.026 8.62h2.661l-.016-7.221a5.28 5.28 0 011.589-.24 2.985 2.985 0 01.4.034v-1.995c-.05 0-.094-.004-.136-.004a12.407 12.407 0 00-4.524.806zm-4.69-4.14c-2.884.26-3.776 1.024-3.776 1.024v11.735h2.814l.009-5.2h4.064v-2.182h-4.064v-2.84a4.001 4.001 0 012.185-.452 6.168 6.168 0 012.78.437l.586-2.006a8.968 8.968 0 00-4.599-.515zm34.843 13.048a5.026 5.026 0 001.555-.221l-.562-2.14a1.688 1.688 0 01-.313.017c-.54 0-.798-.254-.798-1.142v-9.199a3.614 3.614 0 00-1.336-.12 5.174 5.174 0 00-1.318.12h-.009v9.313c0 2.896 1.659 3.372 2.78 3.372zm119.413-9.433a3.065 3.065 0 00-1.686-.397 8.03 8.03 0 00-.649.028 9.898 9.898 0 00-2.594.54v6.312h2.048v-4.738a5.33 5.33 0 01.965-.12.816.816 0 01.521.12c.076.06.119.144.128.367a3.003 3.003 0 01-.16.823 26.528 26.528 0 01-.523 1.53v2.018h1.415c.017-.05 1.05-2.72 1.22-3.499a5.257 5.257 0 00.154-1.171 2.059 2.059 0 00-.839-1.813zm-7.4-.764a1.386 1.386 0 10-1.039-1.057 1.384 1.384 0 001.04 1.056zm-.804.974v6.273h2.227v-6.273a5.056 5.056 0 00-1.109-.072 8.206 8.206 0 00-1.118.072zm-72.908 9.292a10.075 10.075 0 002.98-.563l-1.045-2.063a6.615 6.615 0 01-1.88.368c-1.843 0-2.533-1.843-2.533-4.169 0-2.192.537-4.196 2.432-4.196a2.636 2.636 0 011.895.691l1.352-1.791a4.253 4.253 0 00-3.247-1.124c-2.93 0-5.323 1.914-5.323 6.42 0 4.602 2.185 6.427 5.369 6.427zm39.184-8.642v8.284h2.602v-8.284a6.543 6.543 0 01-2.602 0zm-101.255 0v8.284h2.602v-8.284a6.543 6.543 0 01-2.602 0zm130.962 3.604a31.69 31.69 0 01-.53-1.53 3.164 3.164 0 01-.152-.822c.002-.222.05-.307.118-.366a.859.859 0 01.529-.12 5.176 5.176 0 01.956.12v4.737h2.056v-6.313a9.889 9.889 0 00-2.595-.54 8.408 8.408 0 00-.646-.027 3.086 3.086 0 00-1.69.398 2.045 2.045 0 00-.837 1.812 5.168 5.168 0 00.153 1.172c.172.778 1.203 3.448 1.221 3.498h1.417zm-89.298-.392l-.008 5.072h2.649l.003-4.564a10.9 10.9 0 00-.126-1.883 3.69 3.69 0 00-3.879-3.11 12.778 12.778 0 00-4.2.806v8.751h2.663l.007-7.298a3.541 3.541 0 011.267-.243 1.345 1.345 0 011.532 1.164 6.065 6.065 0 01.092 1.305zm52.4 4.892a5.557 5.557 0 001.491.295 3.848 3.848 0 003.76-3.406c.882-4.403-2.086-6.248-4.763-6.248a13.437 13.437 0 00-3.13.4v13.497h2.662zm0-7.349a6.025 6.025 0 01.71-.047c1.14 0 2.32 1.439 1.962 3.783-.383 2.566-2.43 2.011-2.673 1.823zm16.133-2.027a12.752 12.752 0 00-4.2.805l-.005 8.751h2.662l.012-7.298a3.516 3.516 0 011.273-.243 1.349 1.349 0 011.53 1.164 6.167 6.167 0 01.085 1.305l-.009 5.072h2.653l.003-4.564a10.628 10.628 0 00-.131-1.883 3.684 3.684 0 00-3.873-3.11zm-20.839 3.11a3.69 3.69 0 00-3.869-3.11 7.06 7.06 0 00-3.103.715 3.975 3.975 0 00-2.423-.716 12.92 12.92 0 00-4.201.794v8.764h2.661l.01-7.302a3.494 3.494 0 011.266-.244 1.318 1.318 0 011.504 1.126 6.441 6.441 0 01.098 1.347l-.004 5.073h2.683l-.008-5.151a6.655 6.655 0 00-.303-2.008 3.557 3.557 0 011.553-.387 1.374 1.374 0 011.552 1.161 7.243 7.243 0 01.068 1.328v5.057h2.66l-.008-4.554a10.088 10.088 0 00-.136-1.894zm-37.713-5.95l.01 2.925c-.214-.019-.504-.085-.725-.085-2.719 0-5.543 1.747-4.66 6.112.436 2.139 1.991 3.687 3.852 3.687a3.293 3.293 0 001.922-.763l.255.52h2.033v-12.396a4.034 4.034 0 00-1.377-.12 5.09 5.09 0 00-1.31.12zm-1.2 10.58c-.543 0-1.309-.46-1.554-1.893a3.81 3.81 0 011.028-3.657 1.971 1.971 0 011.726-.136l.01 5.2a1.806 1.806 0 01-1.21.486zm-31.036-1.186a3.791 3.791 0 00-2.1-2.485c-1.02-.566-1.674-.873-1.76-1.276a.846.846 0 01.884-1.005 3.858 3.858 0 012.15.7v-1.97a6.251 6.251 0 00-2.457-.52c-1.777 0-3.255.989-2.865 2.933a3.359 3.359 0 001.659 2.242c.892.57 1.892 1.074 2.024 1.74.101.51-.202 1.2-1.37 1.2a5.034 5.034 0 01-2.136-.767v2.049a6.62 6.62 0 002.39.436c2.347 0 4.04-.992 3.58-3.277zm-11.093-6.556h-.027c-2.338.035-4.047 1.445-4.038 4.877v.042c.092 3.547 1.666 4.886 4.175 4.936.024 0 .024.008.024.008a6.717 6.717 0 002.914-.68v-1.962a4.862 4.862 0 01-2.675.682 1.801 1.801 0 01-1.887-1.99h2.517c.517 0 1.25-.013 1.71-.046l.588-.028a8.652 8.652 0 00.171-1.743c-.047-3.184-1.577-4.045-3.472-4.096zm1.44 4.314h-2.904s-.214-2.388 1.584-2.49a.028.028 0 01.023 0h.01c.687-.055 1.257.75 1.298 1.935zm120.163 5.243h12.346v-1.797h-12.346zm-128.618-12.643a1.385 1.385 0 101.382 1.387 1.386 1.386 0 00-1.382-1.387zm64.296 9.09c.43 2.113 1.998 3.67 3.673 3.67a2.91 2.91 0 002.023-.755 2.754 2.754 0 00.264.64h2.011v-9.054a12.598 12.598 0 00-3.133-.486c-2.763 0-5.638 2.007-4.838 5.984zm5.296 1.218a1.571 1.571 0 01-1.087.418c-.518 0-1.319-.46-1.557-1.875-.39-2.327.821-3.776 1.96-3.776.226 0 .498.024.677.04zm45.182-1.219c.429 2.114 1.997 3.67 3.672 3.67a2.91 2.91 0 002.024-.754 2.752 2.752 0 00.264.64h2.01v-9.054a12.598 12.598 0 00-3.132-.486c-2.764 0-5.639 2.007-4.838 5.984zm5.295 1.22a1.571 1.571 0 01-1.087.417c-.518 0-1.319-.46-1.557-1.875-.39-2.327.821-3.776 1.96-3.776.227 0 .498.024.677.04z" fill="#0094d9"/><path id="path865" d="M35.7984 13.0228a5.826 5.826 0 00.018-2.102c-.02-.14-.03-.195-.047-.3a8.208 8.208 0 00-.2-.829 7.954 7.954 0 00-.866-1.921c-1.486.2-3.03.39-4.57.59-3.375.458-6.425.523-7.46-.523-.974-.987-.29-4.265.4-6.668a5.47 5.47 0 00-1.714-.928s-.065-.02-.206-.06c-.141-.04-.314-.086-.313-.087a4.29 4.29 0 00-.185-.044 5.993 5.993 0 00-2.433-.047c-.044.009-.088.016-.13.026h-.002a24.603 24.603 0 01-1.452 3.139c-.711 1.228-1.629 2.352-2.688 2.51-1.82.273-4.224-2.545-6.623-5.392l-.004-.003a5.95 5.95 0 00-1.893.848 4.915 4.915 0 00-.105.068s-.13.08-.31.217c-.046.035-.106.085-.106.085a5.518 5.518 0 00-.98 1.044 3.843 3.843 0 00-.62 1.025 20.041 20.041 0 013.81 5.332c1.014 2.04-.097 2.63-1.48 3.187a44.968 44.968 0 01-5.407 1.157h-.002a4.794 4.794 0 00-.18 2.162s.022.196.04.3a2.212 2.212 0 00.043.22 5.783 5.783 0 00.977 2.473 35.516 35.516 0 013.948-.272c3.63-.016 3.727 1.033 3.536 3.889a29.02 29.02 0 01-2.177 7.388 4.746 4.746 0 00.693.535 7.259 7.259 0 001.1.548l.004.002c.139.05.139.049.218.075.08.026.239.074.239.074a7.61 7.61 0 002.645.328c.085-.215 3.682-9.474 6.099-9.856 1.863-.294 4.766 3.585 5.311 4.347a7.003 7.003 0 002.17-.49s.107-.049.256-.12c.15-.073.265-.136.265-.136a6.22 6.22 0 001.835-1.827l.04-.065c.086.105-3.06-4.066-2.75-5.898.343-2.018 8.57-3.56 11.256-4z" fill="#fff"/><path id="path867" d="M21.1854.8058a53.558 53.558 0 00-2.015 6.423 8.815 8.815 0 00-.254 2.206 2.214 2.214 0 001.931 2.359 12.215 12.215 0 003.033.129c1.169-.057 2.487-.19 3.825-.351 1.9-.233 5.643-.83 7.464-1.113a75.593 75.593 0 01-8.443.774 17.321 17.321 0 01-3.096-.19 4.689 4.689 0 01-2.448-1.023 3.591 3.591 0 01-.97-1.57 6.006 6.006 0 01-.256-1.744 15.779 15.779 0 01.75-4.457c.138-.459.302-.949.482-1.443l.067-.186z" fill="#a2d39b"/><path id="path869" d="M19.9554 6.7058a6.006 6.006 0 00.257 1.743 3.591 3.591 0 00.97 1.57 4.689 4.689 0 002.448 1.025 17.321 17.321 0 003.096.19 75.593 75.593 0 008.443-.776c.186-.023.371-.05.552-.075a8.208 8.208 0 00-.153-.591 7.954 7.954 0 00-.865-1.921c-1.486.2-3.03.39-4.57.59-3.375.458-6.425.523-7.46-.523-.974-.987-.29-4.265.4-6.668a5.47 5.47 0 00-1.714-.928c-.018.052-.04.106-.06.162-.19.506-.4 1.101-.593 1.745a15.779 15.779 0 00-.75 4.457z" fill="#39b54a"/><path id="path871" d="M8.6714 30.7398a49.884 49.884 0 014.314-8.77 11.256 11.256 0 011.923-2.246 3.546 3.546 0 011.322-.737 3.285 3.285 0 01.915-.13 4.39 4.39 0 012.215.654 11.384 11.384 0 011.983 1.433 41.759 41.759 0 013.552 4.124h.002s-2.317-3.182-3.713-4.69a19.18 19.18 0 00-2.179-2.125 7.24 7.24 0 00-1.153-.73 3.231 3.231 0 00-1.366-.342 2.109 2.109 0 00-.552.068 2.734 2.734 0 00-1.352.939 15.598 15.598 0 00-1.682 2.738 105.074 105.074 0 00-4.229 9.813z" fill="#f49ac1"/><path id="path873" d="M22.7264 25.5588a7.003 7.003 0 002.17-.49 41.759 41.759 0 00-3.553-4.125 11.384 11.384 0 00-1.983-1.433 4.39 4.39 0 00-2.215-.653 3.285 3.285 0 00-.915.13 3.546 3.546 0 00-1.322.737 11.256 11.256 0 00-1.923 2.245 49.884 49.884 0 00-4.314 8.77 7.61 7.61 0 002.645.328c.085-.215 3.682-9.474 6.099-9.856 1.863-.294 4.766 3.585 5.311 4.347z" fill="#ec008c"/><path id="path875" d="M27.8454 12.4708a79.778 79.778 0 017.957-1.548c-1.263.152-6 .87-10.274 1.718-4.273.85-6.38 1.725-5.402 4.463.915 2.552 4.725 7.048 5.234 7.639a28.68 28.68 0 01-2.881-4.525c-2.263-4.792 1.336-6.73 5.366-7.747z" fill="#74bde9"/><path id="path877" d="M35.7984 13.0228a5.826 5.826 0 00.018-2.102l-.014.002a79.778 79.778 0 00-7.957 1.548c-4.03 1.016-7.629 2.955-5.366 7.747a28.68 28.68 0 002.88 4.525l.058.07a6.22 6.22 0 001.835-1.827l.04-.065c.086.105-3.06-4.066-2.75-5.898.343-2.018 8.57-3.56 11.256-4z" fill="#0094d9"/><g transform="translate(.0054 -.0002)" id="g891"><path id="path879" d="M5.87 1.835l.053.067A90.374 90.374 0 009.31 5.901 26.049 26.049 0 0012 8.566a7.812 7.812 0 001.324.895 2.696 2.696 0 003.247-.278 6.904 6.904 0 001.589-2.101 31.245 31.245 0 001.71-4.121c.294-.843.576-1.673.842-2.423-.354.867-.725 1.79-1.153 2.689a10.797 10.797 0 01-2.514 3.62 5.035 5.035 0 01-2.804 1.247 3.453 3.453 0 01-.29.012 5.132 5.132 0 01-2.734-.976 16.46 16.46 0 01-2.492-2.108c-.918-.92-1.9-2.046-2.8-3.121l-.023-.028z" fill="#e9ec9a"/><path id="path881" d="M11.217 7.13a5.132 5.132 0 002.734.976c.097 0 .194-.004.29-.012a5.035 5.035 0 002.804-1.246 10.797 10.797 0 002.514-3.621c.428-.9.82-1.814 1.153-2.69.057-.15.073-.197.123-.342a4.336 4.336 0 00-.185-.044 5.92 5.92 0 00-2.565-.02c-.472 1.153-2.022 5.335-4.14 5.65-1.82.273-4.228-2.552-6.627-5.398a5.95 5.95 0 00-1.927.872c.035.04.016.02.052.063 1.042 1.272 2.16 2.579 3.282 3.704a16.46 16.46 0 002.492 2.108z" fill="#d7df23"/><path id="path883" d="M11.573 10.419a13.686 13.686 0 00-1.246-2.161c-.436-.65-.9-1.283-1.375-1.903A63.63 63.63 0 005.73 2.49a73.062 73.062 0 00-.794-.858l-.016-.016a25.903 25.903 0 014.44 6.425c.388.831 1.4 3.245-.379 4.818C7.145 14.485 3.49 15.005.05 15.507c1.616-.177 3.233-.371 4.842-.609 1.157-.17 2.314-.355 3.451-.616a6.788 6.788 0 002.766-1.105 1.98 1.98 0 00.756-1.31 3.062 3.062 0 00-.292-1.448z" fill="#fdc689"/><path id="path885" d="M3.303 3.67a20.041 20.041 0 013.811 5.332c1.014 2.04-.097 2.63-1.48 3.187a44.968 44.968 0 01-5.407 1.157H.225a4.794 4.794 0 00-.18 2.162H.05c3.44-.503 7.096-1.023 8.932-2.648 1.779-1.573.767-3.987.38-4.818A25.903 25.903 0 004.92 1.617l-.016-.016a5.518 5.518 0 00-.98 1.044 3.843 3.843 0 00-.62 1.025" fill="#f7931e"/><path id="path887" d="M11.496 16.314a3.477 3.477 0 00-1.943-.871 12.339 12.339 0 00-2.08-.113 62.275 62.275 0 00-7.33.695l-.015.002a41.002 41.002 0 014.925-.37 9.4 9.4 0 012.996.374c.054.017.106.035.157.053l.084.03.04.017c1.8.693 2.288 2.153 2.316 3.928a25.574 25.574 0 01-1.049 6.044 70.973 70.973 0 01-1.388 4.488c.618-1.618 1.263-3.226 1.847-4.855a51.526 51.526 0 001.654-5.265 10.886 10.886 0 00.36-2.375 2.457 2.457 0 00-.574-1.782z" fill="#f69679"/><path id="path889" d="M10.646 20.06c-.028-1.776-.516-3.236-2.315-3.93l-.041-.015-.084-.03a5.481 5.481 0 00-.157-.054 9.4 9.4 0 00-2.996-.375 41.002 41.002 0 00-4.925.371 5.783 5.783 0 00.977 2.474 35.516 35.516 0 013.948-.272c3.63-.016 3.727 1.033 3.536 3.889a29.02 29.02 0 01-2.177 7.388 4.746 4.746 0 00.693.535 7.259 7.259 0 001.1.548l.004.002c.46-1.332.96-2.907 1.388-4.488a25.574 25.574 0 001.049-6.044z" fill="#ed1c24"/></g></svg>